<?xml version="1.0" standalone="no"?>
<!DOCTYPE svg PUBLIC "-//W3C//DTD SVG 20010904//EN"
 "http://www.w3.org/TR/2001/REC-SVG-20010904/DTD/svg10.dtd">
<svg version="1.0" xmlns="http://www.w3.org/2000/svg"
 width="200.000000pt" height="200.000000pt" viewBox="0 0 200.000000 200.000000"
 preserveAspectRatio="xMidYMid meet">

<g transform="translate(0.000000,200.000000) scale(0.100000,-0.100000)"
fill="#000000" stroke="none">
<path d="M883 1839 c-31 -20 -83 -107 -83 -138 0 -9 11 -21 25 -27 19 -10 27
-9 36 3 25 29 98 64 152 71 l56 7 -40 53 c-36 46 -44 52 -77 52 -20 0 -51 -10
-69 -21z"/>
<path d="M973 1706 c-11 -13 -27 -26 -34 -29 -11 -4 -12 -7 -1 -18 6 -7 12
-25 12 -41 0 -16 12 -41 31 -62 30 -34 30 -35 13 -61 -15 -23 -16 -32 -5 -61
7 -19 9 -43 6 -54 -4 -11 -2 -20 4 -20 15 0 51 37 51 53 0 7 10 17 22 22 13 6
27 23 33 38 8 24 6 31 -10 43 -10 8 -30 14 -44 14 -27 0 -71 38 -71 60 0 9 11
10 35 6 22 -4 35 -3 35 4 0 5 14 10 30 10 23 0 30 5 30 19 0 13 -8 21 -22 23
-19 2 -24 10 -26 41 -3 35 -5 37 -36 37 -22 0 -39 -8 -53 -24z"/>
<path d="M1269 1656 c-20 -17 -26 -30 -22 -50 3 -16 1 -26 -7 -26 -22 0 -49
-44 -43 -69 4 -16 2 -22 -5 -17 -10 6 -28 -31 -19 -40 2 -3 26 -7 53 -10 127
-14 183 103 97 204 l-28 32 -26 -24z"/>
<path d="M1177 1644 c-9 -10 2 -24 19 -24 8 0 14 7 14 15 0 15 -21 21 -33 9z"/>
<path d="M807 1444 c-25 -51 -21 -81 12 -115 27 -27 35 -29 105 -29 74 0 76 1
76 24 0 19 -8 27 -37 36 -48 16 -100 54 -122 91 l-18 29 -16 -36z"/>
<path d="M1117 1075 c3 -9 -3 -25 -12 -35 -23 -26 -12 -37 20 -22 25 11 27 10
45 -30 23 -50 27 -89 8 -70 -16 16 -28 15 -28 -1 0 -8 11 -20 25 -27 15 -8 25
-22 25 -35 0 -31 -28 -132 -51 -184 -21 -49 -12 -78 16 -50 24 23 65 148 65
197 0 41 1 42 33 42 46 0 97 31 119 71 26 48 23 65 -20 111 -35 37 -45 42 -95
46 -31 2 -69 0 -86 -6 -19 -7 -33 -7 -36 -1 -10 16 -35 10 -28 -6z m192 -29
c39 -21 63 -60 55 -92 -8 -32 -58 -64 -99 -64 -28 0 -31 5 -51 63 -11 34 -24
70 -28 79 -6 12 -2 18 16 21 47 9 80 7 107 -7z"/>
<path d="M1632 1011 c-8 -5 -12 -21 -10 -37 2 -24 7 -29 31 -29 37 1 35 -21
-3 -28 -36 -8 -40 -27 -5 -27 14 0 25 -4 25 -10 0 -5 -7 -10 -15 -10 -8 0 -15
-4 -15 -10 0 -5 7 -10 15 -10 17 0 15 -24 -11 -154 -12 -56 -12 -71 -2 -78 17
-10 28 -10 28 0 0 14 30 226 33 228 1 1 14 5 29 9 23 6 29 2 51 -37 14 -23 31
-73 38 -110 13 -71 24 -85 35 -43 10 39 -15 123 -52 170 l-33 44 24 53 c25 54
32 88 17 88 -5 0 -14 -17 -21 -38 -7 -21 -21 -48 -30 -61 -15 -20 -21 -22 -39
-12 -16 8 -22 21 -22 44 0 18 -4 37 -8 43 -10 16 -45 25 -60 15z"/>
<path d="M1861 1004 c0 -11 3 -14 6 -6 3 7 2 16 -1 19 -3 4 -6 -2 -5 -13z"/>
<path d="M1880 1006 c0 -7 7 -13 15 -13 8 0 15 4 15 8 0 4 -7 9 -15 13 -9 3
-15 0 -15 -8z"/>
<path d="M284 956 c-91 -22 -166 -85 -205 -170 -23 -52 -23 -80 0 -133 14 -29
33 -49 68 -70 43 -25 58 -28 133 -28 91 0 129 13 181 61 14 14 45 34 70 47 32
16 49 33 64 64 23 48 23 48 49 28 17 -13 18 -19 7 -71 -6 -32 -11 -67 -11 -78
0 -43 30 9 40 70 11 69 33 93 62 67 13 -12 18 -31 18 -71 0 -49 2 -54 19 -49
14 3 18 1 14 -9 -3 -8 1 -14 11 -14 14 0 24 25 40 105 5 23 14 33 41 41 33 10
35 10 45 -19 14 -41 13 -63 -5 -98 -14 -27 -14 -30 1 -36 9 -3 20 0 25 8 14
22 10 126 -6 165 -8 20 -13 40 -10 44 8 13 -14 62 -33 76 -9 8 -24 14 -33 14
-9 0 -22 7 -29 15 -20 24 -47 18 -66 -14 l-18 -30 -24 20 c-14 10 -30 19 -37
19 -7 0 -18 7 -25 15 -19 23 -39 18 -60 -17 -23 -38 -12 -60 20 -40 28 17 50
15 50 -6 0 -13 -12 -22 -36 -30 -33 -10 -37 -9 -63 21 -33 36 -82 42 -126 13
-36 -24 -26 -30 24 -15 34 10 44 10 66 -5 36 -24 49 -62 34 -99 -14 -32 -53
-62 -69 -52 -6 4 -17 2 -25 -5 -31 -26 -82 30 -66 72 14 38 37 51 76 45 41 -7
55 7 24 23 -46 25 -118 -12 -132 -68 -8 -34 11 -81 41 -96 l26 -13 -44 -29
c-34 -23 -57 -29 -112 -32 -81 -5 -117 7 -158 55 -53 60 -39 125 45 202 55 51
116 80 185 88 33 4 50 11 50 19 0 18 -64 17 -136 0z m554 -98 c2 -9 -9 -20
-28 -28 -35 -15 -38 -37 -10 -73 17 -21 19 -32 12 -64 l-9 -38 -8 40 c-4 22
-14 52 -21 67 -8 15 -14 43 -14 63 0 31 3 35 19 30 12 -3 21 0 25 11 7 19 30
14 34 -8z m-104 -4 c9 -22 8 -24 -9 -24 -8 0 -15 9 -15 20 0 24 15 27 24 4z
m164 -11 c6 -19 -25 -16 -32 3 -4 11 -1 14 11 12 9 -2 18 -9 21 -15z m-218
-48 c0 -8 -6 -15 -14 -15 -17 0 -28 14 -19 24 12 12 33 6 33 -9z m40 1 c0 -3
-4 -8 -10 -11 -5 -3 -10 -1 -10 4 0 6 5 11 10 11 6 0 10 -2 10 -4z m97 -18
c-3 -8 -6 -5 -6 6 -1 11 2 17 5 13 3 -3 4 -12 1 -19z"/>
<path d="M971 866 c-7 -9 -10 -23 -7 -32 6 -15 8 -15 25 0 31 28 36 -1 7 -43
-35 -50 -34 -94 2 -119 46 -32 66 -34 103 -9 45 30 61 78 47 140 -13 64 -27
59 -25 -8 1 -67 -24 -108 -70 -113 -25 -3 -32 2 -42 26 -10 25 -10 35 3 60 9
17 20 34 26 37 12 7 13 35 2 52 -13 20 -57 26 -71 9z"/>
<path d="M1293 845 c-41 -18 -45 -40 -5 -30 76 19 92 18 92 -4 0 -14 -6 -21
-20 -21 -32 0 -67 -21 -79 -47 -16 -35 -14 -57 10 -87 19 -24 28 -27 68 -25
25 1 57 -2 71 -8 17 -7 31 -7 45 0 19 10 19 11 -6 19 -25 8 -26 13 -27 76 0
72 -6 97 -30 125 -18 21 -74 22 -119 2z m105 -124 c5 -51 -47 -71 -82 -32 -17
19 -17 21 8 46 37 37 70 31 74 -14z"/>
<path d="M1531 847 c-37 -19 -63 -60 -68 -109 -5 -40 -2 -47 22 -66 15 -12 39
-22 52 -22 28 0 74 22 93 45 19 23 4 30 -24 11 -34 -22 -79 -20 -101 4 -23 26
-11 75 26 102 21 16 30 17 53 8 34 -12 46 -5 25 14 -22 22 -52 27 -78 13z"/>
<path d="M989 368 c-1 -7 -1 -21 0 -30 1 -10 -2 -18 -8 -18 -5 0 -12 8 -14 18
-4 13 -5 11 -6 -5 -1 -17 5 -23 19 -23 16 0 20 7 20 35 0 33 -9 50 -11 23z"/>
<path d="M1715 350 c3 -22 0 -30 -12 -30 -10 0 -13 6 -9 18 5 15 5 15 -8 -1
-14 -18 -14 -18 -19 0 -4 15 -5 15 -6 -3 -1 -17 5 -21 34 -22 34 -1 35 0 35
33 0 19 -4 35 -9 35 -5 0 -8 -13 -6 -30z"/>
<path d="M126 354 c-8 -20 11 -44 33 -43 13 0 14 2 1 6 -22 9 -30 26 -18 40 7
9 7 13 0 13 -5 0 -13 -7 -16 -16z"/>
<path d="M381 338 c1 -30 2 -31 8 -8 5 18 9 21 15 12 6 -11 11 -11 24 0 13 11
15 10 10 -9 -4 -13 -2 -23 3 -23 5 0 9 14 9 30 0 33 -14 40 -25 13 -6 -17 -7
-17 -16 0 -16 27 -29 20 -28 -15z"/>
<path d="M1191 343 c-1 -28 2 -33 22 -32 15 1 17 3 5 6 -9 2 -19 16 -21 31 -4
24 -4 24 -6 -5z"/>
<path d="M1270 335 c0 -14 4 -25 9 -25 4 0 6 11 3 25 -2 14 -6 25 -8 25 -2 0
-4 -11 -4 -25z"/>
<path d="M212 330 c0 -14 2 -19 5 -12 2 6 2 18 0 25 -3 6 -5 1 -5 -13z"/>
<path d="M242 325 c0 -16 2 -22 5 -12 2 9 2 23 0 30 -3 6 -5 -1 -5 -18z"/>
<path d="M284 334 c4 -12 2 -15 -9 -10 -8 3 -15 1 -15 -4 0 -6 9 -10 20 -10
13 0 20 7 20 20 0 11 -5 20 -11 20 -6 0 -8 -7 -5 -16z"/>
<path d="M310 344 c0 -11 29 -34 34 -26 2 4 -4 13 -15 20 -10 7 -19 10 -19 6z"/>
<path d="M471 334 c-1 -17 5 -21 32 -22 26 -1 29 1 14 9 -9 6 -15 16 -11 22 3
7 -1 4 -9 -6 -15 -18 -15 -18 -20 0 -4 15 -5 15 -6 -3z"/>
<path d="M540 330 c0 -11 4 -20 8 -20 4 0 8 9 8 20 0 11 -4 20 -8 20 -4 0 -8
-9 -8 -20z"/>
<path d="M574 339 c-3 -6 -2 -15 3 -20 5 -5 9 -1 9 11 0 23 -2 24 -12 9z"/>
<path d="M604 331 c0 -11 4 -17 8 -15 4 3 8 12 8 20 0 8 -4 14 -8 14 -4 0 -8
-9 -8 -19z"/>
<path d="M631 333 c-1 -16 5 -23 17 -23 10 0 13 3 6 8 -6 4 -14 14 -17 22 -4
10 -6 8 -6 -7z"/>
<path d="M674 339 c-3 -6 -1 -16 4 -21 8 -8 11 -5 9 11 -1 24 -3 25 -13 10z"/>
<path d="M707 331 c-4 -17 -3 -21 5 -13 5 5 8 16 6 23 -3 8 -7 3 -11 -10z"/>
<path d="M730 330 c0 -11 4 -20 8 -20 4 0 8 9 8 20 0 11 -4 20 -8 20 -4 0 -8
-9 -8 -20z"/>
<path d="M767 330 c-3 -11 -1 -20 4 -20 5 0 9 9 9 20 0 11 -2 20 -4 20 -2 0
-6 -9 -9 -20z"/>
<path d="M800 330 c0 -11 4 -20 9 -20 5 0 7 9 4 20 -3 11 -7 20 -9 20 -2 0 -4
-9 -4 -20z"/>
<path d="M832 330 c0 -14 2 -19 5 -12 2 6 2 18 0 25 -3 6 -5 1 -5 -13z"/>
<path d="M860 333 c0 -13 8 -23 21 -26 20 -5 20 -5 3 16 -11 12 -20 24 -21 26
-2 2 -3 -5 -3 -16z"/>
<path d="M930 335 c0 -9 -4 -13 -10 -10 -5 3 -10 1 -10 -4 0 -6 9 -11 20 -11
21 0 28 24 10 35 -5 3 -10 -1 -10 -10z"/>
<path d="M1041 333 c-1 -16 5 -23 17 -23 10 0 13 3 6 8 -6 4 -14 14 -17 22 -4
10 -6 8 -6 -7z"/>
<path d="M1084 342 c-9 -5 -8 -10 1 -19 11 -10 13 -9 12 7 -1 11 -1 20 -2 20
0 0 -5 -4 -11 -8z"/>
<path d="M1244 330 c0 -11 4 -20 8 -20 4 0 8 9 8 20 0 11 -4 20 -8 20 -4 0 -8
-9 -8 -20z"/>
<path d="M1304 339 c-3 -6 -2 -15 3 -20 5 -5 9 -1 9 11 0 23 -2 24 -12 9z"/>
<path d="M1334 330 c0 -13 4 -16 10 -10 7 7 7 13 0 20 -6 6 -10 3 -10 -10z"/>
<path d="M1361 333 c-1 -16 5 -23 17 -23 10 0 13 3 6 8 -6 4 -14 14 -17 22 -4
10 -6 8 -6 -7z"/>
<path d="M1404 339 c-3 -6 -2 -15 3 -20 5 -5 9 -1 9 11 0 23 -2 24 -12 9z"/>
<path d="M1434 330 c0 -13 4 -16 10 -10 7 7 7 13 0 20 -6 6 -10 3 -10 -10z"/>
<path d="M1460 330 c0 -11 4 -20 8 -20 4 0 8 9 8 20 0 11 -4 20 -8 20 -4 0 -8
-9 -8 -20z"/>
<path d="M1494 330 c0 -11 4 -20 8 -20 4 0 8 9 8 20 0 11 -4 20 -8 20 -4 0 -8
-9 -8 -20z"/>
<path d="M1530 330 c0 -11 4 -20 9 -20 5 0 7 9 4 20 -3 11 -7 20 -9 20 -2 0
-4 -9 -4 -20z"/>
<path d="M1562 330 c0 -14 2 -19 5 -12 2 6 2 18 0 25 -3 6 -5 1 -5 -13z"/>
<path d="M1587 344 c-3 -5 -1 -16 4 -24 8 -13 10 -13 19 0 5 8 10 20 10 25 0
6 -4 4 -9 -4 -7 -11 -9 -11 -13 0 -3 8 -7 9 -11 3z"/>
<path d="M1772 330 c0 -14 2 -19 5 -12 2 6 2 18 0 25 -3 6 -5 1 -5 -13z"/>
<path d="M1802 334 c10 -10 20 -15 24 -12 3 4 -5 12 -18 18 -22 12 -22 12 -6
-6z"/>
<path d="M180 320 c0 -5 5 -10 11 -10 5 0 7 5 4 10 -3 6 -8 10 -11 10 -2 0 -4
-4 -4 -10z"/>
<path d="M1010 320 c0 -5 5 -10 11 -10 5 0 7 5 4 10 -3 6 -8 10 -11 10 -2 0
-4 -4 -4 -10z"/>
<path d="M1740 320 c0 -5 5 -10 11 -10 5 0 7 5 4 10 -3 6 -8 10 -11 10 -2 0
-4 -4 -4 -10z"/>
</g>
</svg>
