<?xml version="1.0" standalone="no"?>
<!DOCTYPE svg PUBLIC "-//W3C//DTD SVG 20010904//EN"
 "http://www.w3.org/TR/2001/REC-SVG-20010904/DTD/svg10.dtd">
<svg version="1.0" xmlns="http://www.w3.org/2000/svg"
 width="645.000000pt" height="314.000000pt" viewBox="0 0 645.000000 314.000000"
 preserveAspectRatio="xMidYMid meet">

<g transform="translate(0.000000,314.000000) scale(0.100000,-0.100000)"
fill="#000000" stroke="none">
<path d="M275 3014 c-22 -8 -54 -29 -72 -46 -67 -65 -64 2 -61 -1208 l3 -1095
24 -48 c28 -57 76 -92 146 -107 34 -7 647 -9 1950 -8 l1900 3 -90 50 c-49 28
-126 76 -170 109 -109 80 -278 253 -347 357 -114 170 -193 371 -218 550 -6 46
-14 99 -16 117 l-5 32 -38 -30 c-21 -17 -62 -41 -92 -53 -50 -20 -73 -22 -331
-25 l-278 -3 0 -315 0 -314 -130 0 -130 0 0 780 0 780 388 0 c317 0 399 -3
447 -15 111 -29 208 -104 257 -199 l20 -39 43 81 c136 255 326 446 597 603
l103 59 -1930 -1 c-1664 0 -1935 -2 -1970 -15z m283 -1256 l2 -778 -130 0
-130 0 0 780 0 781 128 -3 127 -3 3 -777z m678 178 c112 -330 205 -601 207
-602 1 -2 94 269 206 602 l204 604 161 -2 161 -3 3 -777 2 -778 -130 0 -130 0
-2 523 -3 522 -176 -520 -176 -520 -120 -3 -121 -3 -16 43 c-9 24 -88 257
-175 518 l-159 475 -1 -517 -1 -518 -130 0 -130 0 0 780 0 780 161 -2 161 -3
204 -599z"/>
<path d="M5927 2472 l-78 -27 28 -27 c43 -41 90 -126 108 -193 18 -71 20 -146
3 -163 -8 -8 -50 -12 -124 -12 l-111 0 -7 62 c-11 110 -78 186 -190 218 -40
11 -56 9 -207 -30 -90 -23 -171 -48 -180 -56 -18 -17 -39 -79 -39 -119 0 -50
30 -94 80 -120 45 -23 183 -67 470 -150 151 -43 212 -81 276 -171 60 -84 84
-155 84 -248 0 -216 -139 -389 -375 -468 -61 -20 -89 -23 -220 -23 -271 1
-406 64 -526 245 -50 75 -67 132 -75 245 l-7 95 120 0 120 0 6 -69 c10 -125
71 -207 186 -253 48 -19 76 -22 191 -22 131 -1 136 0 189 29 67 37 107 85 127
152 19 64 7 116 -33 155 -50 48 -216 112 -400 153 -82 19 -227 73 -288 109
-54 32 -112 97 -138 155 -16 34 -22 73 -25 149 -3 68 -8 102 -16 102 -6 0 -90
-13 -186 -29 -210 -35 -371 -56 -545 -71 -71 -6 -154 -13 -182 -16 l-53 -5 0
-80 0 -79 395 0 395 0 0 -120 0 -120 -395 0 -395 0 0 -220 0 -220 428 -2 427
-3 3 -117 3 -118 -487 -2 -487 -3 75 -73 c437 -431 1153 -527 1717 -231 256
134 475 360 587 605 144 317 137 681 -21 994 -39 77 -133 221 -144 219 -3 0
-41 -13 -84 -27z"/>
<path d="M2580 2075 l0 -225 245 0 c192 0 252 3 273 14 99 51 141 199 88 311
-27 59 -46 77 -106 104 -41 19 -65 21 -272 21 l-228 0 0 -225z"/>
<path d="M3535 2048 c-3 -7 -11 -53 -20 -102 -29 -173 -13 -375 45 -548 28
-84 85 -208 95 -208 3 0 5 196 5 435 l0 435 -60 0 c-40 0 -62 -4 -65 -12z"/>
<path d="M3750 410 c-20 -28 -20 -30 -3 -30 11 0 32 14 48 30 l29 30 -26 0
c-18 0 -34 -10 -48 -30z"/>
<path d="M140 270 c0 -143 1 -150 20 -150 19 0 20 7 20 150 0 143 -1 150 -20
150 -19 0 -20 -7 -20 -150z"/>
<path d="M2170 270 l0 -149 28 0 c15 0 41 -3 58 -6 83 -18 134 129 68 200 -25
27 -70 33 -105 15 -18 -10 -19 -7 -19 40 0 38 -4 50 -15 50 -13 0 -15 -23 -15
-150z m130 15 c16 -19 16 -84 1 -113 -14 -27 -62 -30 -82 -5 -8 9 -14 35 -14
58 0 23 6 49 14 58 17 21 64 22 81 2z"/>
<path d="M2410 400 c0 -13 7 -20 20 -20 13 0 20 7 20 20 0 13 -7 20 -20 20
-13 0 -20 -7 -20 -20z"/>
<path d="M2537 413 c-4 -3 -7 -71 -7 -150 0 -136 1 -143 20 -143 19 0 20 7 20
150 0 118 -3 150 -13 150 -8 0 -17 -3 -20 -7z"/>
<path d="M2660 401 c0 -15 6 -21 21 -21 25 0 22 33 -4 38 -12 2 -17 -3 -17
-17z"/>
<path d="M3540 400 c0 -11 7 -20 15 -20 8 0 15 9 15 20 0 11 -7 20 -15 20 -8
0 -15 -9 -15 -20z"/>
<path d="M4290 271 l0 -151 105 0 c98 0 105 1 105 20 0 18 -7 20 -85 20 l-85
0 0 45 0 44 77 3 c65 3 78 6 81 21 3 15 -6 17 -77 17 l-81 0 0 45 0 45 80 0
c64 0 80 3 80 15 0 11 -12 15 -47 15 -27 0 -72 3 -100 6 l-53 7 0 -152z"/>
<path d="M5540 400 c0 -13 7 -20 20 -20 13 0 20 7 20 20 0 13 -7 20 -20 20
-13 0 -20 -7 -20 -20z"/>
<path d="M5927 413 c-4 -3 -7 -71 -7 -150 0 -136 1 -143 20 -143 19 0 20 7 20
150 0 118 -3 150 -13 150 -8 0 -17 -3 -20 -7z"/>
<path d="M322 332 c-7 -5 -23 -7 -35 -5 -22 4 -22 2 -20 -94 2 -121 0 -113 18
-113 12 0 15 15 15 75 0 62 4 79 20 95 24 24 34 25 54 4 12 -11 16 -36 16 -95
0 -64 3 -79 15 -79 12 0 15 15 15 71 0 97 24 134 71 109 16 -9 19 -22 19 -95
0 -78 2 -85 20 -85 18 0 20 7 20 88 0 113 -14 137 -74 128 -51 -8 -63 -8 -106
-1 -19 3 -41 2 -48 -3z"/>
<path d="M692 331 c-7 -4 -24 -6 -38 -3 l-24 4 0 -151 c0 -144 1 -151 20 -151
17 0 20 7 20 51 0 45 2 50 18 44 47 -21 71 -17 102 13 26 27 30 37 30 87 0 49
-4 60 -29 86 -30 29 -72 38 -99 20z m68 -41 c14 -14 20 -33 20 -64 0 -50 -19
-76 -55 -76 -54 0 -74 91 -30 135 29 30 39 31 65 5z"/>
<path d="M914 325 c-47 -32 -58 -142 -19 -185 26 -29 80 -36 121 -16 42 19 46
41 7 31 -49 -12 -86 -9 -100 11 -27 37 -17 44 63 44 l77 0 -7 43 c-11 74 -86
112 -142 72z m90 -31 c31 -31 20 -44 -39 -44 -59 0 -63 4 -39 38 18 26 56 29
78 6z"/>
<path d="M1192 331 c-7 -4 -24 -6 -38 -3 l-24 4 0 -106 c0 -99 1 -106 20 -106
18 0 20 7 20 73 0 77 15 107 53 107 10 0 17 8 17 20 0 21 -24 27 -48 11z"/>
<path d="M1345 330 c-3 -6 -17 -7 -31 -4 l-24 6 0 -106 c0 -99 1 -106 20 -106
18 0 20 7 20 85 0 81 1 86 25 97 43 19 55 -2 55 -98 0 -77 2 -84 20 -84 18 0
20 7 20 79 0 80 12 111 44 111 27 0 36 -26 36 -107 0 -76 2 -83 20 -83 19 0
20 7 20 94 0 73 -4 98 -16 110 -18 19 -75 21 -92 4 -10 -10 -17 -10 -32 0 -24
15 -76 16 -85 2z"/>
<path d="M1687 329 c-42 -24 -59 -116 -32 -168 28 -55 120 -66 161 -19 19 21
19 21 -11 15 -16 -3 -39 -8 -50 -12 -24 -7 -75 28 -75 51 0 11 17 14 75 14 72
0 75 1 75 24 0 37 -20 86 -40 96 -24 13 -80 12 -103 -1z m87 -35 c31 -31 20
-44 -39 -44 -59 0 -67 8 -35 40 24 24 53 26 74 4z"/>
<path d="M1925 315 c-14 -13 -25 -29 -25 -35 0 -18 31 -11 49 11 14 17 23 20
49 14 25 -5 32 -12 32 -30 0 -20 -6 -25 -37 -30 -62 -11 -73 -16 -89 -40 -36
-55 23 -111 93 -86 25 10 38 10 46 2 16 -16 47 -14 47 3 0 8 -4 18 -10 21 -5
3 -10 42 -10 85 0 70 -2 81 -22 94 -35 25 -94 20 -123 -9z m105 -119 c0 -40
-52 -66 -86 -42 -34 26 2 58 74 65 6 0 12 -10 12 -23z"/>
<path d="M3065 329 c-23 -14 -35 -29 -35 -46 0 -21 30 -15 50 9 15 19 22 21
46 13 18 -7 30 -19 32 -32 3 -20 -3 -23 -49 -29 -76 -10 -107 -51 -79 -104 14
-26 64 -35 99 -17 26 13 32 13 42 1 15 -18 49 -18 49 0 0 8 -4 18 -10 21 -5 3
-10 39 -10 79 0 44 -5 79 -13 90 -16 22 -94 31 -122 15z m95 -134 c0 -34 -60
-66 -85 -45 -25 20 -19 49 13 56 15 3 32 7 37 9 25 9 35 3 35 -20z"/>
<path d="M3327 319 c-63 -48 -54 -171 14 -199 53 -22 119 12 119 62 0 27 -25
22 -38 -7 -9 -18 -19 -25 -41 -25 -38 0 -56 24 -56 77 0 35 5 49 24 64 30 25
37 24 65 -6 13 -14 28 -25 35 -25 19 0 12 36 -12 58 -29 28 -76 28 -110 1z"/>
<path d="M3694 328 c-56 -26 -64 -139 -15 -189 74 -74 178 3 157 116 -14 71
-78 104 -142 73z m90 -50 c44 -63 -12 -159 -70 -120 -34 22 -41 94 -13 129 18
21 66 16 83 -9z"/>
<path d="M3970 330 c-8 -5 -25 -7 -37 -3 -23 5 -23 4 -23 -101 0 -88 3 -106
15 -106 12 0 15 13 15 59 0 33 4 71 10 85 12 34 44 50 70 36 18 -9 20 -21 20
-95 0 -78 2 -85 20 -85 19 0 20 7 20 90 0 77 -3 93 -20 110 -21 21 -65 26 -90
10z"/>
<path d="M4592 324 c-15 -10 -22 -25 -22 -48 0 -40 10 -50 74 -67 55 -16 65
-29 41 -53 -23 -23 -52 -20 -79 9 -28 30 -46 32 -46 6 0 -28 47 -61 85 -61 44
0 85 34 85 70 0 35 -14 46 -79 66 -53 15 -66 36 -33 53 23 12 59 4 66 -15 8
-21 36 -17 36 5 0 26 -37 51 -75 51 -17 0 -41 -7 -53 -16z"/>
<path d="M4870 330 c-8 -5 -25 -7 -37 -3 l-23 5 0 -151 c0 -128 2 -151 15
-151 11 0 15 12 15 51 0 45 2 50 18 44 55 -23 100 -11 123 32 18 33 18 103 0
135 -21 40 -77 60 -111 38z m57 -35 c40 -28 39 -126 -2 -141 -70 -27 -116 96
-52 141 26 19 28 19 54 0z"/>
<path d="M5092 330 c-45 -18 -66 -114 -37 -169 28 -55 120 -66 161 -19 19 21
19 21 -11 15 -16 -3 -39 -8 -50 -12 -24 -7 -75 28 -75 51 0 11 17 14 75 14
l75 0 0 30 c0 37 -23 85 -45 94 -23 8 -66 6 -93 -4z m82 -36 c31 -31 20 -44
-39 -44 -59 0 -67 8 -35 40 24 24 53 26 74 4z"/>
<path d="M5331 314 c-59 -49 -51 -160 13 -191 54 -25 126 7 126 57 0 28 -24
25 -44 -5 -34 -52 -96 -18 -96 53 0 22 8 41 25 57 30 31 40 31 69 0 13 -14 28
-25 35 -25 19 0 12 30 -14 55 -32 33 -75 32 -114 -1z"/>
<path d="M5686 319 c-14 -11 -26 -27 -26 -35 0 -21 29 -17 49 7 14 17 23 20
49 14 25 -5 32 -12 32 -30 0 -20 -6 -25 -37 -30 -63 -11 -73 -16 -89 -41 -37
-56 23 -110 93 -85 25 10 38 10 46 2 16 -16 47 -14 47 3 0 8 -4 18 -10 21 -5
3 -10 42 -10 85 0 70 -2 81 -22 94 -32 23 -90 20 -122 -5z m104 -123 c0 -42
-65 -71 -90 -41 -25 30 9 57 78 64 6 0 12 -10 12 -23z"/>
<path d="M2410 225 c0 -98 1 -105 20 -105 19 0 20 7 20 105 0 98 -1 105 -20
105 -19 0 -20 -7 -20 -105z"/>
<path d="M2660 225 c0 -98 1 -105 20 -105 19 0 20 7 20 105 0 98 -1 105 -20
105 -19 0 -20 -7 -20 -105z"/>
<path d="M2790 315 c0 -11 12 -15 50 -15 28 0 50 -3 50 -6 0 -4 -25 -37 -55
-74 -77 -94 -75 -100 30 -100 78 0 85 2 85 20 0 18 -7 20 -55 20 -30 0 -55 3
-55 6 0 4 25 37 55 74 30 37 55 72 55 79 0 7 -27 11 -80 11 -64 0 -80 -3 -80
-15z"/>
<path d="M3540 225 c0 -87 3 -105 15 -105 12 0 15 18 15 105 0 87 -3 105 -15
105 -12 0 -15 -18 -15 -105z"/>
<path d="M5540 225 c0 -98 1 -105 20 -105 19 0 20 7 20 105 0 98 -1 105 -20
105 -19 0 -20 -7 -20 -105z"/>
<path d="M6180 303 c-47 -17 -81 -84 -66 -131 10 -31 53 -69 87 -76 38 -7 91
14 113 45 9 13 16 41 16 62 0 73 -80 126 -150 100z"/>
</g>
</svg>
