<?xml version="1.0" standalone="no"?>
<!DOCTYPE svg PUBLIC "-//W3C//DTD SVG 20010904//EN"
 "http://www.w3.org/TR/2001/REC-SVG-20010904/DTD/svg10.dtd">
<svg version="1.0" xmlns="http://www.w3.org/2000/svg"
 width="800.000000pt" height="800.000000pt" viewBox="0 0 800.000000 800.000000"
 preserveAspectRatio="xMidYMid meet">

<g transform="translate(0.000000,800.000000) scale(0.100000,-0.100000)"
fill="#000000" stroke="none">
<path d="M4050 7085 c-6 -15 -8 -35 -6 -44 4 -12 -12 -23 -62 -46 -79 -35
-188 -137 -241 -227 -43 -74 -87 -202 -102 -298 -16 -102 -6 -322 20 -425 44
-177 142 -403 232 -536 124 -183 262 -331 550 -591 514 -463 622 -660 606
-1093 -10 -267 -74 -467 -209 -646 -69 -91 -116 -136 -213 -197 -117 -76 -114
-73 -85 -66 14 3 63 22 110 42 453 190 808 587 911 1017 70 296 74 600 13 916
-67 347 -161 587 -332 849 -161 247 -291 399 -672 785 -315 319 -340 347 -444
494 -65 92 -66 93 -76 66z m20 -82 c0 -18 154 -191 310 -348 l168 -170 7 -145
c8 -177 -6 -330 -43 -479 -15 -61 -26 -111 -24 -111 9 0 57 127 79 210 19 75
26 134 32 283 4 103 10 189 13 192 3 3 13 -7 23 -22 10 -15 64 -80 121 -143
56 -63 137 -158 179 -210 l76 -95 -6 -74 c-12 -125 -50 -292 -93 -396 -31 -75
-36 -94 -20 -75 59 70 129 275 153 448 8 57 21 67 31 25 4 -16 33 -66 64 -113
173 -259 314 -554 297 -622 -13 -52 -87 -148 -148 -193 -62 -45 -65 -59 -6
-29 60 31 127 86 159 130 17 24 33 42 36 39 3 -2 6 -21 7 -42 2 -21 10 -78 18
-128 52 -291 50 -647 -4 -974 -46 -281 -121 -426 -323 -626 -121 -121 -239
-211 -362 -276 l-79 -43 79 80 c139 138 201 231 256 382 116 318 62 764 -127
1049 -113 171 -304 383 -448 496 -185 146 -262 216 -397 362 -148 159 -202
238 -288 417 -170 358 -156 710 41 999 74 110 219 242 219 202z"/>
<path d="M3599 6975 c-252 -55 -535 -176 -755 -323 -485 -325 -777 -814 -859
-1437 -60 -456 -5 -804 189 -1200 120 -244 241 -411 429 -592 224 -215 575
-403 921 -494 214 -55 273 -62 538 -64 l247 -2 83 -70 c158 -132 150 -128 217
-113 l59 12 -107 78 c-437 312 -919 793 -1205 1200 -218 309 -394 657 -478
940 -122 415 -95 821 82 1233 150 347 492 757 632 757 21 0 38 -2 38 -4 0 -2
-20 -36 -44 -76 -177 -287 -202 -657 -71 -1041 20 -57 73 -178 118 -269 62
-127 82 -176 83 -212 2 -30 -3 -51 -12 -59 -8 -6 -14 -22 -14 -35 0 -14 -8
-25 -20 -29 -11 -3 -20 -13 -20 -20 0 -17 -20 -22 -125 -29 -92 -7 -143 8
-281 85 -86 47 -250 204 -313 298 l-36 54 -9 -39 c-10 -43 5 -270 25 -366 l12
-57 30 42 c32 44 48 59 82 79 11 6 3 -8 -18 -31 -22 -24 -49 -66 -62 -93 -22
-48 -23 -52 -8 -102 42 -141 126 -345 194 -470 l33 -60 22 101 c41 180 93 315
150 382 39 47 39 31 -1 -36 -52 -88 -92 -206 -119 -360 l-25 -137 26 -46 c75
-129 221 -337 357 -508 97 -122 104 -124 105 -37 2 63 39 293 62 375 22 82 79
198 111 227 17 15 15 6 -11 -44 -71 -141 -105 -296 -116 -528 -4 -71 -8 -137
-11 -145 -5 -18 307 -372 475 -541 101 -100 242 -219 260 -219 4 0 37 27 74
61 213 193 327 477 327 818 0 416 -139 641 -680 1103 -113 96 -225 196 -249
224 -71 80 -213 301 -278 435 -70 143 -114 266 -144 412 -29 135 -32 363 -5
485 40 185 124 371 217 476 31 35 31 36 8 35 -13 0 -71 -11 -130 -24z m-411
-268 c9 -10 2 -25 -29 -62 -156 -189 -295 -452 -435 -819 l-49 -129 49 -42
c35 -31 47 -49 44 -65 -3 -21 -6 -20 -51 20 -54 48 -93 109 -113 178 l-14 47
4 -48 c2 -26 16 -71 30 -99 l27 -51 -77 -221 c-42 -125 -85 -231 -97 -245 -23
-25 -91 -60 -117 -61 -10 0 -25 33 -48 109 l-33 108 11 154 c14 187 39 317 90
470 62 188 117 286 230 414 132 151 261 244 433 316 99 41 128 46 145 26z
m-707 -1693 c81 -125 160 -184 327 -244 47 -17 66 -30 73 -48 13 -34 6 -37
-43 -23 -165 49 -330 200 -406 373 -2 5 -2 8 1 8 3 0 24 -30 48 -66z m89 -735
c129 -86 242 -117 493 -134 83 -6 99 -10 112 -28 8 -12 15 -26 15 -31 0 -12
-171 1 -275 21 -159 30 -330 117 -420 215 -22 23 -29 33 -15 22 14 -12 54 -41
90 -65z m545 -766 c66 -21 104 -26 220 -30 77 -3 181 0 230 5 89 9 90 9 118
-16 15 -14 24 -29 20 -33 -5 -5 -60 -11 -123 -15 -139 -8 -288 7 -409 42 -89
26 -234 97 -286 140 -21 18 -4 12 60 -21 50 -25 126 -57 170 -72z"/>
<path d="M4619 6591 c11 -19 20 -21 95 -21 162 0 302 -40 426 -122 l75 -49
-40 41 c-98 101 -208 138 -499 166 -67 6 -68 6 -57 -15z"/>
<path d="M5050 6114 c1 -24 22 -31 100 -37 145 -10 272 -59 376 -144 51 -41
55 -43 35 -15 -31 44 -99 98 -153 122 -87 38 -358 94 -358 74z"/>
<path d="M5390 5581 c0 -24 15 -35 70 -50 132 -37 274 -148 340 -264 35 -62
46 -73 29 -30 -25 66 -75 146 -113 181 -37 34 -155 109 -196 125 -8 3 -41 17
-72 31 -54 24 -58 24 -58 7z"/>
<path d="M5647 4717 c-3 -9 12 -28 39 -51 58 -49 93 -102 116 -179 l18 -62 -6
55 c-3 30 -17 76 -31 101 -33 61 -128 156 -136 136z"/>
<path d="M1110 2101 l0 -311 40 0 40 0 -2 308 -3 307 -37 3 -38 3 0 -310z"/>
<path d="M4030 2100 l0 -310 35 0 35 0 0 310 0 310 -35 0 -35 0 0 -310z"/>
<path d="M1620 2285 c0 -52 -1 -55 -25 -55 -21 0 -25 -5 -25 -30 0 -25 4 -30
25 -30 l25 0 0 -170 c0 -168 0 -171 25 -195 18 -18 35 -25 65 -25 38 0 40 2
40 30 0 25 -4 30 -24 30 -13 0 -27 7 -30 16 -3 9 -6 83 -6 165 l0 149 30 0
c27 0 30 3 30 30 0 27 -3 30 -30 30 -30 0 -30 1 -30 55 l0 55 -35 0 -35 0 0
-55z"/>
<path d="M2990 2285 c0 -52 -1 -55 -25 -55 -21 0 -25 -5 -25 -30 0 -25 4 -30
25 -30 l25 0 0 -170 c0 -168 0 -171 25 -195 18 -18 35 -25 65 -25 38 0 40 2
40 30 0 25 -4 30 -24 30 -13 0 -27 7 -30 16 -3 9 -6 83 -6 165 l0 149 30 0
c27 0 30 3 30 30 0 27 -3 30 -30 30 -30 0 -30 1 -30 55 l0 55 -35 0 -35 0 0
-55z"/>
<path d="M1270 2010 l0 -220 35 0 35 0 0 175 c0 162 2 177 20 195 25 25 52 26
73 2 15 -16 17 -45 17 -195 l0 -177 36 0 35 0 -3 201 c-3 197 -3 201 -27 220
-28 23 -81 25 -121 4 -25 -13 -29 -13 -34 0 -3 9 -18 15 -36 15 l-30 0 0 -220z"/>
<path d="M1850 2217 c-46 -23 -55 -59 -55 -212 0 -113 3 -146 17 -171 22 -40
66 -58 124 -51 59 6 93 39 101 95 l6 42 -37 0 c-33 0 -36 -2 -36 -29 0 -36
-20 -53 -57 -49 -35 4 -53 37 -53 101 l0 47 91 0 91 0 -4 91 c-3 88 -4 92 -36
120 -26 23 -41 29 -80 29 -26 0 -58 -6 -72 -13z m104 -53 c10 -10 16 -33 16
-65 l0 -49 -56 0 -57 0 5 52 c7 71 53 102 92 62z"/>
<path d="M2110 2010 l0 -220 35 0 35 0 0 140 c0 185 19 230 94 230 23 0 26 4
26 35 0 31 -3 35 -26 35 -16 0 -39 -13 -60 -34 l-34 -34 0 34 c0 32 -2 34 -35
34 l-35 0 0 -220z"/>
<path d="M2330 2010 l0 -220 35 0 35 0 0 175 c0 162 2 177 20 195 25 25 52 26
73 2 15 -16 17 -45 17 -195 l0 -177 36 0 35 0 -3 201 c-3 197 -3 201 -27 220
-28 23 -81 25 -121 4 -25 -13 -29 -13 -34 0 -3 9 -18 15 -36 15 l-30 0 0 -220z"/>
<path d="M2698 2215 c-27 -15 -48 -64 -48 -112 0 -20 5 -23 35 -23 34 0 35 1
35 40 0 40 18 60 54 60 23 0 46 -29 46 -58 0 -21 -12 -35 -57 -67 -32 -22 -72
-54 -90 -71 -30 -29 -33 -38 -33 -89 0 -49 4 -60 29 -86 39 -38 87 -39 130 -3
30 25 31 25 31 5 0 -17 6 -21 33 -21 l32 0 -3 167 c-3 206 -6 227 -39 253 -31
24 -114 27 -155 5z m101 -361 c-42 -44 -89 -20 -89 44 1 43 13 62 67 102 l38
29 3 -76 c3 -67 0 -79 -19 -99z"/>
<path d="M3172 2029 l3 -201 28 -24 c35 -30 85 -31 121 -3 21 17 26 18 26 5 0
-12 10 -16 35 -16 l35 0 0 220 0 220 -35 0 -35 0 0 -180 c0 -167 -1 -181 -20
-200 -25 -25 -52 -26 -73 -2 -15 16 -17 45 -17 200 l0 182 -36 0 -35 0 3 -201z"/>
<path d="M3500 2011 l0 -221 34 0 35 0 3 161 3 161 28 24 c15 13 39 24 53 24
21 0 24 5 24 35 0 29 -4 35 -21 35 -12 0 -36 -15 -54 -33 l-34 -34 -3 31 c-3
27 -7 31 -35 34 l-33 3 0 -220z"/>
<path d="M3759 2215 c-29 -16 -49 -60 -49 -106 0 -27 3 -29 36 -29 30 0 34 3
29 19 -17 53 46 102 85 66 41 -37 20 -75 -82 -144 -64 -43 -78 -65 -78 -129 0
-46 4 -58 29 -83 39 -38 87 -39 130 -3 30 25 31 25 31 5 0 -17 6 -21 33 -21
l32 0 -3 167 c-3 206 -6 227 -39 253 -31 24 -114 27 -154 5z m103 -354 c-40
-54 -92 -32 -92 38 1 42 14 61 67 101 l38 29 3 -72 c2 -57 -1 -76 -16 -96z"/>
<path d="M993 1537 c2 -91 4 -100 26 -118 33 -27 86 -25 116 6 23 22 25 31 23
117 l-1 93 -6 -94 c-6 -82 -9 -95 -30 -112 -29 -24 -62 -24 -91 -1 -20 16 -24
32 -31 113 l-7 94 1 -98z"/>
<path d="M1772 1610 c0 -14 2 -19 5 -12 2 6 2 18 0 25 -3 6 -5 1 -5 -13z"/>
<path d="M2730 1584 c0 -45 0 -45 -22 -30 -32 22 -55 20 -83 -9 -34 -33 -34
-87 0 -120 28 -29 51 -31 82 -10 20 14 22 13 26 -2 3 -10 5 35 6 100 0 64 -1
117 -4 117 -3 0 -5 -21 -5 -46z m-20 -44 c41 -41 14 -130 -40 -130 -32 0 -60
36 -60 75 0 39 28 75 60 75 11 0 29 -9 40 -20z"/>
<path d="M3722 1610 c0 -14 2 -19 5 -12 2 6 2 18 0 25 -3 6 -5 1 -5 -13z"/>
<path d="M5450 1584 c0 -45 0 -45 -22 -30 -32 22 -55 20 -83 -9 -17 -16 -25
-35 -25 -60 0 -25 8 -44 25 -60 28 -29 51 -31 82 -10 20 14 22 13 26 -2 3 -10
5 35 6 100 0 64 -1 117 -4 117 -3 0 -5 -21 -5 -46z m-20 -44 c41 -41 14 -130
-39 -130 -38 0 -68 51 -57 95 14 54 60 71 96 35z"/>
<path d="M7114 1515 c0 -66 1 -92 3 -57 2 34 2 88 0 120 -2 31 -3 3 -3 -63z"/>
<path d="M3354 1515 c0 -60 1 -84 3 -52 2 32 2 81 0 110 -2 29 -3 3 -3 -58z"/>
<path d="M5830 1586 c0 -13 -6 -27 -12 -29 -10 -4 -10 -6 0 -6 8 -1 12 -20 12
-58 0 -64 5 -76 35 -86 19 -7 19 -6 3 7 -14 10 -18 28 -18 74 0 49 3 61 18 65
16 4 16 5 0 6 -12 1 -18 9 -18 26 0 14 -4 25 -10 25 -5 0 -10 -11 -10 -24z"/>
<path d="M6630 1586 c0 -13 -6 -27 -12 -29 -10 -4 -10 -6 0 -6 8 -1 12 -20 12
-58 0 -64 5 -76 35 -86 19 -7 19 -6 3 7 -14 10 -18 28 -18 74 0 49 3 61 18 65
16 4 16 5 0 6 -12 1 -18 9 -18 26 0 14 -4 25 -10 25 -5 0 -10 -11 -10 -24z"/>
<path d="M1233 1555 c-16 -12 -22 -12 -26 -2 -3 6 -5 -26 -5 -73 l1 -85 6 68
c6 71 23 97 62 97 28 0 38 -23 42 -95 l3 -70 2 77 c2 67 0 79 -17 88 -27 14
-43 13 -68 -5z"/>
<path d="M1643 1555 c-16 -12 -22 -12 -26 -2 -3 6 -5 -26 -4 -73 1 -80 1 -81
4 -17 3 59 7 69 29 83 20 13 30 15 49 6 22 -10 24 -18 28 -84 l3 -73 2 72 c3
96 -28 128 -85 88z"/>
<path d="M1975 1545 c-55 -54 -13 -155 58 -141 31 6 57 29 57 49 0 6 -11 -2
-25 -17 -29 -31 -58 -33 -85 -6 -38 38 -27 50 45 50 59 0 65 2 65 20 0 27 -43
70 -70 70 -11 0 -32 -11 -45 -25z m85 -5 c37 -37 26 -50 -40 -50 -33 0 -60 4
-60 9 0 18 42 61 61 61 10 0 28 -9 39 -20z"/>
<path d="M2158 1556 c-20 -11 -28 -11 -32 -3 -2 7 -4 -26 -3 -73 1 -69 1 -73
4 -25 4 60 22 95 50 95 7 0 13 5 13 10 0 13 0 13 -32 -4z"/>
<path d="M2220 1552 c-33 -26 -14 -56 45 -71 38 -10 45 -15 45 -36 0 -45 -76
-47 -99 -2 -10 19 -11 20 -8 2 3 -30 49 -52 84 -39 22 7 28 16 28 39 0 26 -5
31 -45 45 -46 16 -64 45 -38 61 22 14 47 10 68 -11 11 -11 20 -16 20 -11 0 14
-41 41 -61 41 -9 0 -27 -8 -39 -18z"/>
<path d="M2376 1549 c-21 -16 -26 -29 -26 -64 0 -35 5 -48 26 -64 35 -27 59
-26 89 4 17 16 25 35 25 60 0 25 -8 44 -25 60 -30 30 -54 31 -89 4z m84 -9
c41 -41 14 -130 -40 -130 -32 0 -60 36 -60 75 0 39 28 75 60 75 11 0 29 -9 40
-20z"/>
<path d="M2799 1551 c-19 -15 -24 -29 -24 -66 0 -37 5 -51 24 -66 13 -10 34
-19 47 -19 25 0 64 31 64 51 0 7 -9 0 -21 -15 -12 -15 -30 -26 -44 -26 -22 0
-65 41 -65 61 0 5 29 9 65 9 61 0 65 1 65 23 0 28 -9 41 -37 56 -30 16 -47 14
-74 -8z m81 -11 c36 -36 26 -50 -35 -50 -60 0 -71 15 -38 52 21 24 48 23 73
-2z"/>
<path d="M3046 1557 c-11 -8 -17 -23 -14 -37 2 -19 13 -27 50 -38 51 -14 65
-33 42 -57 -24 -23 -60 -18 -83 11 -12 15 -21 22 -21 15 0 -20 39 -51 64 -51
13 0 34 8 46 18 35 28 19 59 -37 73 -48 13 -63 30 -43 54 18 22 57 18 74 -7
13 -18 16 -19 16 -6 0 33 -61 49 -94 25z"/>
<path d="M3195 1545 c-17 -16 -25 -35 -25 -60 0 -25 8 -44 25 -60 27 -28 45
-31 78 -14 31 17 37 28 37 76 0 33 -5 46 -26 62 -35 27 -59 26 -89 -4z m85 -5
c41 -41 14 -130 -40 -130 -28 0 -60 39 -60 74 0 34 34 76 62 76 10 0 27 -9 38
-20z"/>
<path d="M3576 1547 c-35 -35 -35 -89 -1 -122 36 -37 82 -29 106 18 10 18 7
17 -14 -5 -31 -33 -59 -36 -87 -8 -28 28 -26 81 3 108 29 28 51 28 78 1 24
-24 35 -21 16 4 -6 9 -26 20 -44 23 -26 5 -37 1 -57 -19z"/>
<path d="M3848 1555 c52 -23 64 -82 24 -127 -22 -26 -57 -22 -82 9 -25 31 -21
73 8 106 13 16 14 19 2 15 -24 -7 -43 -56 -36 -94 11 -56 67 -81 113 -49 46
32 36 127 -14 146 -39 14 -51 10 -15 -6z"/>
<path d="M3973 1555 c-16 -12 -22 -12 -26 -2 -3 6 -5 -24 -4 -68 1 -73 1 -75
4 -17 3 53 8 65 29 79 20 12 30 14 49 5 22 -10 24 -18 28 -84 l3 -73 2 72 c3
96 -28 128 -85 88z"/>
<path d="M4115 1545 c-17 -16 -25 -35 -25 -60 0 -38 35 -85 64 -85 30 0 63 19
69 40 5 20 4 19 -18 -4 -29 -31 -58 -33 -85 -6 -38 38 -27 50 45 50 59 0 65 2
65 20 0 27 -43 70 -70 70 -11 0 -32 -11 -45 -25z m85 -5 c37 -37 26 -50 -40
-50 -33 0 -60 4 -60 9 0 18 42 61 61 61 10 0 28 -9 39 -20z"/>
<path d="M4276 1557 c-11 -8 -17 -23 -14 -37 2 -20 13 -27 51 -38 54 -15 70
-38 42 -58 -30 -22 -61 -17 -84 14 -11 15 -21 21 -21 15 0 -21 38 -53 64 -53
13 0 34 8 46 18 35 28 19 59 -37 73 -48 13 -63 30 -43 54 18 22 57 18 74 -7
13 -18 16 -19 16 -6 0 33 -61 49 -94 25z"/>
<path d="M4516 1549 c-52 -41 -26 -149 37 -149 30 0 67 27 67 48 -1 14 -2 14
-12 -3 -23 -40 -57 -46 -88 -15 -36 36 -26 49 43 52 60 3 62 4 59 28 -3 28
-35 60 -62 60 -9 0 -29 -9 -44 -21z m76 -6 c10 -9 18 -24 18 -35 0 -15 -8 -18
-55 -18 -61 0 -71 14 -35 50 24 24 47 25 72 3z"/>
<path d="M4733 1558 c30 -11 35 -25 40 -108 3 -49 3 -47 5 17 2 64 0 74 -20
87 -12 9 -29 16 -38 15 -8 0 -3 -5 13 -11z"/>
<path d="M4976 1563 c76 -15 74 -153 -1 -153 -50 0 -75 89 -37 134 16 20 16
20 0 7 -12 -9 -18 -10 -18 -2 0 6 -4 11 -10 11 -6 0 -10 -42 -10 -105 0 -63 4
-105 10 -105 6 0 10 15 10 34 0 34 0 34 29 23 64 -24 113 33 91 105 -11 39
-35 59 -67 57 -14 -1 -13 -3 3 -6z"/>
<path d="M5118 1556 c-16 -8 -28 -11 -28 -5 0 5 -4 9 -10 9 -6 0 -10 -32 -10
-75 0 -43 4 -75 10 -75 6 0 10 26 10 58 0 60 11 82 42 82 10 0 18 5 18 10 0
13 0 13 -32 -4z"/>
<path d="M5194 1560 c-34 -13 -48 -70 -30 -114 37 -88 150 -39 132 58 -10 54
-51 77 -102 56z m75 -26 c12 -15 21 -37 21 -49 0 -28 -36 -75 -59 -75 -37 0
-61 29 -61 75 0 34 5 47 22 59 32 23 54 20 77 -10z"/>
<path d="M5694 1560 c-12 -5 -27 -24 -33 -43 -16 -48 6 -103 45 -113 34 -9 77
13 83 41 2 16 -1 15 -19 -7 -41 -52 -100 -25 -100 45 0 41 28 77 60 77 11 0
29 -9 40 -20 11 -11 20 -16 20 -11 0 14 -41 41 -60 40 -8 0 -25 -4 -36 -9z"/>
<path d="M5926 1549 c-21 -16 -26 -29 -26 -62 0 -48 6 -59 37 -76 33 -17 51
-14 78 14 17 16 25 35 25 60 0 25 -8 44 -25 60 -30 30 -54 31 -89 4z m84 -11
c40 -43 14 -128 -40 -128 -32 0 -60 36 -60 75 0 65 59 97 100 53z"/>
<path d="M6086 1557 c-11 -8 -17 -23 -14 -37 2 -20 13 -27 51 -38 53 -15 67
-33 46 -59 -12 -14 -12 -16 1 -11 9 3 15 17 15 34 0 26 -5 31 -49 45 -53 16
-65 31 -46 54 18 22 57 18 74 -7 13 -18 16 -19 16 -6 0 33 -61 49 -94 25z"/>
<path d="M6383 1558 c30 -11 35 -25 40 -108 3 -49 3 -47 5 17 2 64 0 74 -20
87 -12 9 -29 16 -38 15 -8 0 -3 -5 13 -11z"/>
<path d="M6500 1563 c-16 -6 -30 -23 -30 -35 0 -5 9 1 20 12 21 21 37 24 64
14 22 -8 21 -51 -1 -57 -17 -4 -17 -5 0 -6 22 -1 23 -38 0 -63 -9 -11 -11 -18
-5 -18 7 0 12 5 12 11 0 8 5 7 15 -1 9 -7 18 -10 22 -6 3 3 1 6 -5 6 -8 0 -12
22 -12 65 0 53 -3 66 -19 75 -21 11 -37 12 -61 3z"/>
<path d="M6973 1555 c-13 -9 -23 -21 -23 -27 0 -7 9 -2 20 10 24 26 52 28 74
7 18 -18 12 -42 -12 -48 -15 -4 -15 -5 1 -6 25 -2 23 -57 -2 -71 -28 -15 -57
-12 -72 6 -16 20 -2 46 32 55 23 7 23 7 2 8 -12 1 -29 -6 -37 -15 -44 -43 17
-94 75 -63 15 8 24 7 37 -3 14 -11 15 -11 9 5 -4 10 -7 42 -7 70 0 29 -4 58
-8 64 -13 21 -65 26 -89 8z"/>
<path d="M7175 1545 c-17 -16 -25 -35 -25 -60 0 -38 35 -85 64 -85 27 0 64 22
69 42 5 16 1 15 -18 -6 -29 -31 -58 -33 -85 -6 -38 38 -27 50 45 50 59 0 65 2
65 20 0 27 -43 70 -70 70 -11 0 -32 -11 -45 -25z m85 -7 c35 -38 26 -48 -40
-48 -33 0 -60 4 -60 9 0 18 42 61 60 61 11 0 28 -10 40 -22z"/>
<path d="M7336 1557 c-11 -8 -17 -23 -14 -37 2 -20 13 -27 51 -38 54 -15 70
-38 42 -58 -29 -21 -62 -17 -84 12 -12 15 -21 22 -21 15 0 -20 39 -51 64 -51
13 0 34 8 46 18 35 28 19 59 -37 73 -48 13 -63 30 -43 54 18 22 57 18 74 -7
13 -18 16 -19 16 -6 0 33 -61 49 -94 25z"/>
<path d="M1440 1521 c0 -68 11 -102 37 -114 20 -9 31 -8 53 5 27 15 29 15 33
0 3 -9 5 21 4 68 0 84 0 84 -6 22 -6 -65 -24 -92 -61 -92 -29 0 -40 23 -40 87
0 35 -4 63 -10 63 -5 0 -10 -17 -10 -39z"/>
<path d="M1773 1480 c0 -47 2 -66 4 -42 2 23 2 61 0 85 -2 23 -4 4 -4 -43z"/>
<path d="M1810 1552 c0 -13 51 -136 59 -145 4 -4 22 28 38 73 17 44 28 80 24
80 -3 0 -17 -29 -30 -65 -12 -36 -26 -63 -31 -60 -4 2 -18 32 -30 65 -21 56
-30 72 -30 52z"/>
<path d="M3390 1521 c0 -68 11 -102 37 -114 20 -9 31 -8 53 5 27 15 29 15 33
0 3 -9 5 21 4 68 0 84 0 84 -6 22 -6 -65 -24 -92 -61 -92 -29 0 -40 23 -40 87
0 35 -4 63 -10 63 -5 0 -10 -17 -10 -39z"/>
<path d="M3723 1480 c0 -47 2 -66 4 -42 2 23 2 61 0 85 -2 23 -4 4 -4 -43z"/>
<path d="M4650 1484 c0 -43 4 -74 10 -74 6 0 10 26 10 57 0 37 5 62 15 73 15
16 14 18 -10 18 -25 0 -25 -2 -25 -74z"/>
<path d="M5502 1499 c-2 -78 17 -106 65 -95 15 4 36 7 46 7 15 0 17 10 17 75
0 43 -4 74 -10 74 -6 0 -10 -26 -10 -58 0 -60 -18 -92 -51 -92 -33 1 -44 20
-50 87 l-6 68 -1 -66z"/>
<path d="M6313 1485 c1 -70 1 -72 4 -20 3 37 11 67 21 80 15 17 15 18 0 7 -13
-10 -17 -10 -21 0 -3 7 -5 -23 -4 -67z"/>
<path d="M6702 1503 c-2 -51 2 -67 18 -83 24 -24 48 -25 77 -5 20 14 22 13 26
-2 3 -10 4 20 4 67 0 47 -2 67 -4 45 -7 -81 -25 -115 -61 -115 -36 0 -47 19
-53 87 l-6 68 -1 -62z"/>
<path d="M6862 1485 l1 -80 7 57 c8 61 22 88 49 89 9 0 11 3 4 5 -7 3 -21 1
-32 -5 -14 -8 -21 -8 -24 2 -3 6 -5 -24 -5 -68z"/>
<path d="M6472 1478 c-31 -31 3 -86 46 -75 13 4 12 5 -4 6 -52 3 -55 58 -3 72
l24 7 -25 1 c-15 1 -31 -4 -38 -11z"/>
<path d="M6066 1445 c10 -28 34 -45 63 -44 25 1 25 1 -4 10 -16 4 -38 19 -47
31 -16 20 -17 21 -12 3z"/>
</g>
</svg>
