<?xml version="1.0" standalone="no"?>
<!DOCTYPE svg PUBLIC "-//W3C//DTD SVG 20010904//EN"
 "http://www.w3.org/TR/2001/REC-SVG-20010904/DTD/svg10.dtd">
<svg version="1.0" xmlns="http://www.w3.org/2000/svg"
 width="300.000000pt" height="58.000000pt" viewBox="0 0 300.000000 58.000000"
 preserveAspectRatio="xMidYMid meet">

<g transform="translate(0.000000,58.000000) scale(0.100000,-0.100000)"
fill="#000000" stroke="none">
<path d="M2659 511 c-37 -12 -71 -31 -99 -55 -24 -20 -24 -20 -7 0 9 11 17 24
17 27 0 4 -537 7 -1193 7 l-1193 0 -44 -22 c-118 -60 -124 -288 -10 -349 33
-18 85 -19 1243 -19 899 0 1206 3 1201 11 -4 7 8 1 25 -12 28 -21 44 -24 115
-24 74 0 87 3 131 30 142 88 132 309 -17 386 -42 22 -131 32 -169 20z m81
-123 c0 -61 -16 -54 -22 10 -2 29 0 42 9 42 9 0 13 -16 13 -52z m-1304 20 c11
-18 -4 -19 -35 -3 -17 8 -31 17 -31 19 0 7 61 -7 66 -16z m1424 -28 c0 -9 -8
-24 -17 -33 -17 -15 -18 -13 -18 33 0 46 1 48 18 33 9 -9 17 -24 17 -33z
m-2600 -25 l0 -65 29 0 c20 0 35 8 45 22 22 32 20 55 -9 83 l-24 25 23 0 c38
0 69 -32 69 -70 0 -45 -32 -70 -89 -70 l-44 0 0 -50 c0 -47 -2 -50 -25 -50
l-25 0 0 120 0 120 25 0 c24 0 25 -2 25 -65z m1047 54 c-59 -35 -63 -155 -6
-208 26 -24 11 -28 -30 -6 -29 15 -61 68 -61 103 0 57 53 122 100 122 12 -1
11 -3 -3 -11z m-747 -44 c0 -9 -9 -15 -23 -15 -13 0 -28 -5 -35 -12 -9 -9 -12
-9 -12 -1 0 14 39 43 57 43 7 0 13 -7 13 -15z m301 -21 c-28 -36 -28 -102 0
-138 24 -30 7 -36 -27 -8 -61 49 -56 134 10 166 39 19 44 14 17 -20z m119 17
c0 -16 -13 -19 -31 -8 -26 16 -24 25 6 19 14 -2 25 -8 25 -11z m650 4 c0 -8
-9 -15 -19 -15 -11 0 -28 -3 -38 -6 -14 -4 -13 -1 6 15 27 25 51 27 51 6z
m168 -8 c8 -6 12 -38 12 -93 0 -83 0 -84 -25 -84 -25 0 -25 1 -25 84 0 46 -3
92 -6 100 -5 12 -2 15 12 10 11 -4 25 -11 32 -17z m180 17 c32 -9 28 -28 -5
-19 -32 7 -55 25 -32 25 7 0 24 -3 37 -6z m234 -28 c4 -6 8 -46 8 -88 0 -77 0
-78 -25 -78 -25 0 -25 1 -25 84 0 46 -3 92 -7 101 -5 15 -3 16 18 5 13 -7 27
-18 31 -24z m175 28 c13 -4 20 -10 17 -15 -8 -13 -28 -11 -50 6 -21 16 -8 20
33 9z m-1927 -99 c0 -95 0 -95 -25 -95 -25 0 -25 0 -25 95 0 95 0 95 25 95 25
0 25 0 25 -95z m164 60 c-23 -57 -15 -124 20 -147 6 -5 2 -8 -10 -8 -11 0 -31
11 -44 25 -32 34 -31 107 1 141 35 37 51 32 33 -11z m101 29 c21 -8 45 -56 45
-89 0 -33 -24 -81 -45 -89 -30 -11 -36 -6 -21 16 10 13 16 43 16 73 0 30 -6
60 -16 73 -15 22 -9 27 21 16z m329 -21 c-23 -46 -19 -53 36 -53 48 0 50 1 50
28 0 15 -5 33 -12 40 -9 9 -8 12 4 12 21 0 58 -46 58 -71 0 -17 -8 -19 -75
-19 -69 0 -75 -2 -75 -20 0 -12 7 -34 15 -50 18 -36 6 -39 -30 -7 -17 14 -28
36 -32 63 -4 33 -1 45 22 72 35 41 60 44 39 5z m476 -68 c0 -95 0 -95 -25 -95
-25 0 -25 0 -25 95 0 95 0 95 25 95 25 0 25 0 25 -95z m156 80 c-22 -17 -36
-19 -36 -7 0 14 12 22 34 22 21 -1 21 -1 2 -15z m190 -2 c0 -11 21 -30 58 -53
71 -43 87 -71 61 -100 -10 -11 -25 -20 -34 -20 -13 0 -14 2 -2 9 21 14 7 37
-41 67 -51 33 -88 64 -88 75 0 10 29 39 40 39 4 0 7 -8 6 -17z m213 -2 c-26
-21 -35 -20 -26 4 4 8 16 15 28 15 21 0 21 0 -2 -19z m194 1 c-3 -13 8 -24 39
-41 85 -47 113 -97 69 -121 -28 -15 -35 -12 -20 6 11 14 10 19 -13 38 -14 11
-47 33 -72 48 -49 29 -60 59 -28 77 25 15 31 13 25 -7z m457 -78 c0 -24 -4
-44 -10 -44 -5 0 -10 23 -10 51 0 31 4 48 10 44 6 -3 10 -26 10 -51z m-1043
18 c-10 -10 -17 -35 -17 -54 0 -31 4 -38 28 -46 l27 -10 -28 -7 c-38 -10 -77
17 -77 53 0 31 15 54 45 70 30 17 40 14 22 -6z m409 2 c-37 -37 -26 -104 17
-104 18 0 19 -2 7 -10 -25 -16 -50 -11 -76 15 -30 30 -26 58 12 93 30 26 66
33 40 6z m-668 -51 c-3 -49 -6 -58 -23 -61 -18 -3 -20 2 -17 58 3 52 6 60 23
60 18 0 20 -6 17 -57z m1211 -75 c20 -18 26 -28 16 -28 -24 0 -74 53 -76 80
-5 63 2 75 16 25 8 -32 24 -59 44 -77z m-1476 25 c-9 -7 -23 -13 -32 -13 -10
0 -8 7 9 25 18 19 26 22 32 13 4 -8 1 -18 -9 -25z m-193 12 c0 -14 -40 -38
-49 -29 -3 3 39 43 47 44 1 0 2 -7 2 -15z m1777 -22 c-3 -10 -5 -4 -5 12 0 17
2 24 5 18 2 -7 2 -21 0 -30z m-864 10 c26 -8 21 -26 -5 -19 -13 3 -29 6 -35 6
-7 0 -13 7 -13 16 0 11 5 14 18 9 9 -4 25 -10 35 -12z m396 1 c39 -19 36 -26
-7 -18 -18 4 -32 13 -32 20 0 17 0 17 39 -2z"/>
</g>
</svg>
